<svg xmlns="http://www.w3.org/2000/svg" xmlns:xlink="http://www.w3.org/1999/xlink" width="500"
    zoomAndPan="magnify" viewBox="0 0 375 374.999991" height="500"
    preserveAspectRatio="xMidYMid meet" version="1.0">
    <path fill="#ffffff"
        d="M 79.390625 136.84375 C 79.390625 136.84375 134.839844 132.734375 167.011719 145.054688 L 190.289062 151.902344 C 190.289062 151.902344 229.308594 188.867188 263.535156 192.976562 C 297.761719 197.082031 319.671875 192.976562 327.203125 201.191406 C 334.730469 209.40625 327.203125 208.71875 327.203125 208.71875 C 327.203125 208.71875 299.816406 208.035156 279.285156 217.621094 C 258.746094 227.203125 242.316406 237.472656 242.316406 237.472656 L 139.632812 233.367188 L 62.277344 205.984375 C 62.277344 205.984375 55.429688 195.03125 54.0625 188.1875 C 52.695312 181.339844 21.886719 143.6875 21.886719 143.6875 C 21.886719 143.6875 36.261719 138.894531 42.425781 140.265625 C 48.585938 141.632812 79.390625 136.84375 79.390625 136.84375 Z M 79.390625 136.84375 "
        fill-opacity="1" fill-rule="nonzero" />
    <path fill="#ffffff"
        d="M 80.589844 142.433594 C 80.589844 142.433594 87.09375 140.378906 87.777344 146.882812 C 88.464844 153.386719 86.410156 155.785156 82.644531 155.441406 C 78.878906 155.097656 74.085938 146.882812 80.589844 142.433594 Z M 80.589844 142.433594 "
        fill-opacity="1" fill-rule="nonzero" />
    <path fill="#ffffff"
        d="M 210.199219 168.789062 C 210.199219 168.789062 183.726562 149.164062 158.171875 144.144531 C 158.171875 144.144531 167.296875 132.734375 169.582031 126.800781 C 171.863281 120.867188 186.011719 104.894531 190.117188 109.457031 C 194.226562 114.023438 191.945312 116.304688 192.402344 128.171875 C 192.855469 140.039062 193.769531 156.46875 210.199219 168.789062 Z M 210.199219 168.789062 "
        fill-opacity="1" fill-rule="nonzero" />
    <path fill="#ffffff"
        d="M 80.246094 145.855469 C 80.246094 145.855469 82.984375 146.539062 83.324219 149.277344 C 83.324219 149.277344 86.75 142.777344 80.246094 145.855469 Z M 80.246094 145.855469 "
        fill-opacity="1" fill-rule="nonzero" />
    <path fill="#ffffff"
        d="M 260.628906 191.722656 C 260.628906 191.722656 260.628906 193.777344 265.078125 194.460938 C 269.527344 195.144531 285.613281 196.859375 285.613281 196.859375 C 285.613281 196.859375 271.578125 194.804688 273.636719 186.929688 C 275.691406 179.054688 273.292969 182.820312 267.472656 187.273438 C 261.65625 191.722656 260.628906 191.722656 260.628906 191.722656 Z M 260.628906 191.722656 "
        fill-opacity="1" fill-rule="nonzero" />
    <path fill="#ffffff"
        d="M 238.378906 200.277344 C 238.378906 200.277344 251.726562 205.753906 272.949219 205.070312 C 294.171875 204.386719 315.734375 199.9375 323.261719 202.675781 C 330.792969 205.414062 321.210938 197.882812 314.023438 198.222656 C 314.023438 198.222656 307.175781 196.855469 302.730469 195.484375 C 302.730469 195.484375 307.175781 194.457031 310.941406 187.613281 C 314.707031 180.769531 342.429688 140.039062 349.621094 142.777344 C 356.808594 145.515625 355.78125 141.410156 350.988281 147.910156 C 346.195312 154.414062 350.304688 155.441406 350.304688 155.441406 C 350.304688 155.441406 352.015625 156.125 348.25 159.886719 C 344.488281 163.652344 339.695312 186.246094 338.324219 191.039062 C 336.957031 195.832031 335.929688 210.546875 343.460938 221.15625 C 350.988281 231.769531 349.28125 233.820312 348.9375 235.191406 C 348.59375 236.558594 349.621094 239.296875 351.335938 239.984375 C 353.046875 240.667969 360.234375 250.253906 354.414062 250.933594 C 348.597656 251.621094 336.617188 242.378906 331.828125 237.585938 C 327.035156 232.792969 310.261719 212.257812 303.417969 213.625 C 296.570312 214.996094 276.71875 222.183594 259.601562 228.6875 C 259.601562 228.6875 255.15625 233.820312 242.832031 228.6875 C 242.832031 228.6875 232.566406 224.578125 231.539062 224.578125 C 231.539062 224.578125 233.25 218.417969 235.644531 218.417969 C 238.039062 218.417969 265.761719 212.941406 251.386719 207.121094 C 251.386719 207.121094 234.617188 202.671875 235.644531 200.617188 C 236.667969 198.566406 238.378906 200.277344 238.378906 200.277344 Z M 238.378906 200.277344 "
        fill-opacity="1" fill-rule="nonzero" />
    <path fill="#ffffff"
        d="M 264.394531 238.269531 C 264.394531 238.269531 227.085938 225.609375 207.574219 221.5 C 188.066406 217.390625 190.804688 216.023438 183.273438 213.285156 C 175.742188 210.546875 178.136719 206.097656 178.136719 206.097656 C 178.136719 206.097656 180.875 201.308594 179.507812 189.667969 C 178.136719 178.03125 177.792969 189.667969 177.792969 189.667969 C 177.453125 197.539062 175.742188 193.09375 174.714844 186.585938 C 173.6875 180.082031 173.34375 184.535156 173.34375 184.535156 C 170.605469 201.988281 168.210938 194.457031 168.210938 194.457031 C 169.578125 186.929688 167.523438 183.164062 167.523438 183.164062 C 167.523438 183.164062 163.417969 214.3125 137.40625 216.363281 C 111.394531 218.417969 98.386719 198.566406 93.59375 192.746094 C 92.621094 191.5625 91.230469 190.742188 89.605469 190.191406 C 94.351562 188.769531 99.386719 187.707031 104.035156 187.496094 C 119.09375 186.8125 105.40625 184.757812 105.40625 184.757812 C 67.453125 187.253906 62.289062 193.390625 62.269531 196.53125 C 60.953125 198.957031 60.738281 201.300781 60.738281 201.300781 C 58.339844 198.90625 59.027344 194.796875 59.027344 194.796875 C 60.738281 191.71875 60.050781 190.351562 59.027344 186.242188 C 58 182.132812 63.476562 186.242188 65.1875 187.953125 C 66.898438 189.664062 66.898438 184.875 65.53125 181.109375 C 64.160156 177.34375 71.007812 183.160156 72.375 184.875 C 73.746094 186.585938 73.746094 182.820312 73.746094 179.394531 C 73.746094 175.972656 75.800781 178.027344 75.800781 178.027344 C 75.800781 178.027344 78.195312 182.472656 80.246094 182.472656 C 82.300781 182.472656 81.273438 177.34375 81.273438 177.34375 C 81.273438 177.34375 84.011719 180.765625 85.378906 180.765625 C 86.75 180.765625 87.433594 181.449219 87.089844 178.027344 C 86.75 174.601562 89.828125 177 91.199219 178.710938 C 92.570312 180.421875 93.59375 180.421875 93.253906 177.34375 C 92.910156 174.261719 97.359375 178.367188 98.730469 180.082031 C 100.101562 181.792969 101.46875 178.710938 100.441406 177 C 99.414062 175.289062 102.496094 175.972656 102.496094 175.972656 C 102.496094 175.972656 103.179688 178.367188 106.261719 180.421875 C 109.34375 182.476562 109.34375 177.34375 109.34375 177.34375 C 110.710938 176.316406 111.054688 180.082031 111.054688 180.082031 C 112.421875 180.082031 116.875 182.476562 116.875 182.476562 C 116.875 182.476562 117.558594 181.449219 116.1875 178.714844 C 114.820312 175.976562 113.449219 171.183594 94.96875 172.210938 C 76.484375 173.238281 60.738281 158.859375 59.027344 154.753906 C 57.316406 150.644531 57.316406 151.332031 53.207031 148.933594 C 49.101562 146.539062 51.15625 151.332031 52.523438 155.097656 C 53.894531 158.859375 50.128906 156.464844 50.128906 156.464844 C 50.128906 156.464844 40.886719 148.9375 34.726562 145.511719 C 28.5625 142.089844 41.230469 141.0625 50.128906 141.746094 C 59.027344 142.433594 70.664062 142.433594 78.195312 139.351562 C 85.726562 136.269531 106.605469 138.667969 106.605469 138.667969 C 102.5 135.929688 82.988281 133.191406 74.089844 135.585938 C 65.191406 137.980469 45 137.296875 45 137.296875 C 14.871094 135.929688 17.609375 146.539062 17.609375 146.539062 C 18.292969 172.210938 49.78125 193.09375 53.546875 195.144531 C 57.3125 197.199219 57.65625 200.621094 57.65625 200.621094 C 59.367188 210.546875 82.984375 221.5 92.570312 225.949219 C 102.152344 230.398438 95.308594 231.425781 95.308594 231.425781 C 95.308594 231.425781 81.273438 242.722656 73.742188 256.414062 C 66.214844 270.105469 79.21875 263.261719 79.21875 263.261719 C 79.21875 263.261719 101.8125 254.707031 116.1875 248.203125 C 130.5625 241.695312 133.300781 244.09375 133.300781 244.09375 C 177.453125 257.785156 203.125 249.914062 207.917969 248.542969 C 212.710938 247.175781 207.917969 245.460938 204.492188 242.382812 C 201.070312 239.300781 203.808594 240.328125 203.808594 240.328125 C 203.808594 240.328125 225.03125 244.777344 246.9375 247.859375 C 268.84375 250.941406 286.984375 254.707031 299.988281 257.441406 C 312.996094 260.179688 311.625 256.757812 311.625 256.757812 C 315.390625 256.070312 264.394531 238.269531 264.394531 238.269531 Z M 264.394531 238.269531 "
        fill-opacity="1" fill-rule="nonzero" />
</svg>